<svg width="1512" height="757" viewBox="0 0 1512 757" fill="none" xmlns="http://www.w3.org/2000/svg">
<rect x="175" y="370" width="36" height="134" rx="7" fill="#3DEEB8"/>
<rect x="51" y="582" width="36" height="133" rx="7" fill="#0F0F0F"/>
<rect x="295" y="582" width="36" height="60" rx="7" fill="#FA824C"/>
<rect x="423" y="672" width="36" height="60" rx="7" fill="#FA824C"/>
<rect x="793" y="582" width="36" height="60" rx="7" fill="#FA824C"/>
<rect x="670" y="447" width="36" height="60" rx="7" fill="#FA824C"/>
<rect x="670" y="277" width="36" height="134" rx="7" fill="#3DEEB8"/>
<rect x="546" y="582" width="36" height="134" rx="7" fill="#3DEEB8"/>
<path d="M331 757L295 757L295 679C295 675.134 298.134 672 302 672L324 672C327.866 672 331 675.134 331 679L331 757Z" fill="#3DEEB8"/>
<path d="M706 757L670 757L670 731C670 727.134 673.134 724 677 724L699 724C702.866 724 706 727.134 706 731L706 757Z" fill="#3DEEB8"/>
</svg>
