<svg width="190" height="50" viewBox="0 0 190 50" fill="none" xmlns="http://www.w3.org/2000/svg">
<path d="M76.3799 21.9999V5.79991H78.5999V21.9999H76.3799Z" fill="black"/>
<path d="M82.4008 21.9999V7.47991H79.6608V5.79991H87.3208V7.47991H84.6608V21.9999H82.4008Z" fill="black"/>
<path d="M96.0729 22.1799C95.1395 22.1799 94.3595 21.9799 93.7329 21.5799C93.1195 21.1799 92.6529 20.6266 92.3329 19.9199C92.0129 19.2132 91.8262 18.3932 91.7729 17.4599L93.7729 16.9199C93.8129 17.4932 93.8995 18.0466 94.0329 18.5799C94.1795 19.1132 94.4129 19.5532 94.7329 19.8999C95.0529 20.2332 95.4995 20.3999 96.0729 20.3999C96.6595 20.3999 97.0995 20.2399 97.3929 19.9199C97.6995 19.5866 97.8529 19.1132 97.8529 18.4999C97.8529 17.7666 97.6862 17.1799 97.3529 16.7399C97.0195 16.2866 96.5995 15.8332 96.0929 15.3799L93.3729 12.9799C92.8395 12.5132 92.4462 12.0066 92.1929 11.4599C91.9395 10.8999 91.8129 10.2132 91.8129 9.39991C91.8129 8.21325 92.1529 7.29325 92.8329 6.63991C93.5129 5.98658 94.4395 5.65991 95.6129 5.65991C96.2529 5.65991 96.8129 5.74658 97.2929 5.91991C97.7862 6.07991 98.1929 6.33325 98.5129 6.67991C98.8462 7.02658 99.1062 7.46658 99.2929 7.99991C99.4929 8.51991 99.6262 9.13325 99.6929 9.83991L97.7729 10.3599C97.7329 9.82658 97.6529 9.33991 97.5329 8.89991C97.4129 8.44658 97.1995 8.08658 96.8929 7.81991C96.5995 7.53991 96.1729 7.39991 95.6129 7.39991C95.0529 7.39991 94.6129 7.55325 94.2929 7.85991C93.9862 8.15325 93.8329 8.59325 93.8329 9.17991C93.8329 9.67325 93.9129 10.0799 94.0729 10.3999C94.2462 10.7199 94.5195 11.0466 94.8929 11.3799L97.6329 13.7799C98.2462 14.3132 98.7862 14.9532 99.2529 15.6999C99.7195 16.4332 99.9529 17.3066 99.9529 18.3199C99.9529 19.1199 99.7862 19.8132 99.4529 20.3999C99.1195 20.9732 98.6595 21.4132 98.0729 21.7199C97.4995 22.0266 96.8329 22.1799 96.0729 22.1799Z" fill="black"/>
<path d="M105.246 22.1799C104.153 22.1799 103.279 21.9666 102.626 21.5399C101.973 21.1132 101.506 20.5066 101.226 19.7199C100.946 18.9199 100.806 17.9866 100.806 16.9199V10.7799C100.806 9.71325 100.946 8.79991 101.226 8.03991C101.519 7.26658 101.986 6.67991 102.626 6.27991C103.279 5.86658 104.153 5.65991 105.246 5.65991C106.339 5.65991 107.206 5.86658 107.846 6.27991C108.486 6.69325 108.946 7.27991 109.226 8.03991C109.519 8.79991 109.666 9.71325 109.666 10.7799V16.9399C109.666 17.9932 109.519 18.9132 109.226 19.6999C108.946 20.4866 108.486 21.0999 107.846 21.5399C107.206 21.9666 106.339 22.1799 105.246 22.1799ZM105.246 20.3999C105.846 20.3999 106.299 20.2799 106.606 20.0399C106.913 19.7866 107.119 19.4399 107.226 18.9999C107.333 18.5466 107.386 18.0199 107.386 17.4199V10.3199C107.386 9.71991 107.333 9.20658 107.226 8.77991C107.119 8.33991 106.913 8.00658 106.606 7.77991C106.299 7.53991 105.846 7.41991 105.246 7.41991C104.646 7.41991 104.186 7.53991 103.866 7.77991C103.559 8.00658 103.353 8.33991 103.246 8.77991C103.139 9.20658 103.086 9.71991 103.086 10.3199V17.4199C103.086 18.0199 103.139 18.5466 103.246 18.9999C103.353 19.4399 103.559 19.7866 103.866 20.0399C104.186 20.2799 104.646 20.3999 105.246 20.3999Z" fill="black"/>
<path d="M111.287 21.9999V5.79991H113.547V20.3799H117.687V21.9999H111.287Z" fill="black"/>
<path d="M122.816 22.1799C121.643 22.1799 120.743 21.9466 120.116 21.4799C119.49 21.0132 119.063 20.3599 118.836 19.5199C118.61 18.6666 118.496 17.6732 118.496 16.5399V5.79991H120.656V16.6399C120.656 17.3332 120.703 17.9666 120.796 18.5399C120.89 19.1132 121.09 19.5666 121.396 19.8999C121.716 20.2332 122.19 20.3999 122.816 20.3999C123.456 20.3999 123.93 20.2332 124.236 19.8999C124.543 19.5666 124.743 19.1132 124.836 18.5399C124.93 17.9666 124.976 17.3332 124.976 16.6399V5.79991H127.116V16.5399C127.116 17.6732 127.003 18.6666 126.776 19.5199C126.55 20.3599 126.123 21.0132 125.496 21.4799C124.883 21.9466 123.99 22.1799 122.816 22.1799Z" fill="black"/>
<path d="M130.676 21.9999V7.47991H127.936V5.79991H135.596V7.47991H132.936V21.9999H130.676Z" fill="black"/>
<path d="M136.678 21.9999V5.79991H138.898V21.9999H136.678Z" fill="black"/>
<path d="M145.058 22.1799C143.965 22.1799 143.092 21.9666 142.438 21.5399C141.785 21.1132 141.318 20.5066 141.038 19.7199C140.758 18.9199 140.618 17.9866 140.618 16.9199V10.7799C140.618 9.71325 140.758 8.79991 141.038 8.03991C141.332 7.26658 141.798 6.67991 142.438 6.27991C143.092 5.86658 143.965 5.65991 145.058 5.65991C146.152 5.65991 147.018 5.86658 147.658 6.27991C148.298 6.69325 148.758 7.27991 149.038 8.03991C149.332 8.79991 149.478 9.71325 149.478 10.7799V16.9399C149.478 17.9932 149.332 18.9132 149.038 19.6999C148.758 20.4866 148.298 21.0999 147.658 21.5399C147.018 21.9666 146.152 22.1799 145.058 22.1799ZM145.058 20.3999C145.658 20.3999 146.112 20.2799 146.418 20.0399C146.725 19.7866 146.932 19.4399 147.038 18.9999C147.145 18.5466 147.198 18.0199 147.198 17.4199V10.3199C147.198 9.71991 147.145 9.20658 147.038 8.77991C146.932 8.33991 146.725 8.00658 146.418 7.77991C146.112 7.53991 145.658 7.41991 145.058 7.41991C144.458 7.41991 143.998 7.53991 143.678 7.77991C143.372 8.00658 143.165 8.33991 143.058 8.77991C142.952 9.20658 142.898 9.71991 142.898 10.3199V17.4199C142.898 18.0199 142.952 18.5466 143.058 18.9999C143.165 19.4399 143.372 19.7866 143.678 20.0399C143.998 20.2799 144.458 20.3999 145.058 20.3999Z" fill="black"/>
<path d="M151.1 21.9999V5.79991H152.64L157.24 16.5599V5.79991H159.12V21.9999H157.68L153.02 10.9399V21.9999H151.1Z" fill="black"/>
<path d="M164.886 22.1799C163.953 22.1799 163.173 21.9799 162.546 21.5799C161.933 21.1799 161.466 20.6266 161.146 19.9199C160.826 19.2132 160.639 18.3932 160.586 17.4599L162.586 16.9199C162.626 17.4932 162.713 18.0466 162.846 18.5799C162.993 19.1132 163.226 19.5532 163.546 19.8999C163.866 20.2332 164.313 20.3999 164.886 20.3999C165.473 20.3999 165.913 20.2399 166.206 19.9199C166.513 19.5866 166.666 19.1132 166.666 18.4999C166.666 17.7666 166.499 17.1799 166.166 16.7399C165.833 16.2866 165.413 15.8332 164.906 15.3799L162.186 12.9799C161.653 12.5132 161.259 12.0066 161.006 11.4599C160.753 10.8999 160.626 10.2132 160.626 9.39991C160.626 8.21325 160.966 7.29325 161.646 6.63991C162.326 5.98658 163.253 5.65991 164.426 5.65991C165.066 5.65991 165.626 5.74658 166.106 5.91991C166.599 6.07991 167.006 6.33325 167.326 6.67991C167.659 7.02658 167.919 7.46658 168.106 7.99991C168.306 8.51991 168.439 9.13325 168.506 9.83991L166.586 10.3599C166.546 9.82658 166.466 9.33991 166.346 8.89991C166.226 8.44658 166.013 8.08658 165.706 7.81991C165.413 7.53991 164.986 7.39991 164.426 7.39991C163.866 7.39991 163.426 7.55325 163.106 7.85991C162.799 8.15325 162.646 8.59325 162.646 9.17991C162.646 9.67325 162.726 10.0799 162.886 10.3999C163.059 10.7199 163.333 11.0466 163.706 11.3799L166.446 13.7799C167.059 14.3132 167.599 14.9532 168.066 15.6999C168.533 16.4332 168.766 17.3066 168.766 18.3199C168.766 19.1199 168.599 19.8132 168.266 20.3999C167.933 20.9732 167.473 21.4132 166.886 21.7199C166.313 22.0266 165.646 22.1799 164.886 22.1799Z" fill="black"/>
<path d="M76.2598 43.9999V27.7999H80.2798C81.2531 27.7999 82.0264 27.9799 82.5998 28.3399C83.1864 28.6866 83.6131 29.1932 83.8798 29.8599C84.1464 30.5266 84.2798 31.3332 84.2798 32.2799C84.2798 33.1332 84.1264 33.8732 83.8198 34.4999C83.5264 35.1266 83.0864 35.6132 82.4998 35.9599C81.9131 36.2932 81.1798 36.4599 80.2998 36.4599H78.5198V43.9999H76.2598ZM78.5198 34.8399H79.5598C80.2131 34.8399 80.7264 34.7666 81.0998 34.6199C81.4731 34.4732 81.7398 34.2199 81.8998 33.8599C82.0598 33.4866 82.1398 32.9666 82.1398 32.2999C82.1398 31.5266 82.0798 30.9332 81.9598 30.5199C81.8531 30.1066 81.6198 29.8199 81.2598 29.6599C80.8998 29.4999 80.3398 29.4199 79.5798 29.4199H78.5198V34.8399Z" fill="black"/>
<path d="M85.2691 43.9999V27.7999H91.5491V29.4799H87.5291V34.8399H90.7891V36.4399H87.5291V42.3799H91.5891V43.9999H85.2691Z" fill="black"/>
<path d="M96.9537 44.1799C95.8603 44.1799 94.987 43.9666 94.3337 43.5399C93.6803 43.1132 93.2137 42.5066 92.9337 41.7199C92.6537 40.9199 92.5137 39.9866 92.5137 38.9199V32.7799C92.5137 31.7132 92.6537 30.7999 92.9337 30.0399C93.227 29.2666 93.6937 28.6799 94.3337 28.2799C94.987 27.8666 95.8603 27.6599 96.9537 27.6599C98.047 27.6599 98.9137 27.8666 99.5537 28.2799C100.194 28.6932 100.654 29.2799 100.934 30.0399C101.227 30.7999 101.374 31.7132 101.374 32.7799V38.9399C101.374 39.9932 101.227 40.9132 100.934 41.6999C100.654 42.4866 100.194 43.0999 99.5537 43.5399C98.9137 43.9666 98.047 44.1799 96.9537 44.1799ZM96.9537 42.3999C97.5537 42.3999 98.007 42.2799 98.3137 42.0399C98.6203 41.7866 98.827 41.4399 98.9337 40.9999C99.0403 40.5466 99.0937 40.0199 99.0937 39.4199V32.3199C99.0937 31.7199 99.0403 31.2066 98.9337 30.7799C98.827 30.3399 98.6203 30.0066 98.3137 29.7799C98.007 29.5399 97.5537 29.4199 96.9537 29.4199C96.3537 29.4199 95.8937 29.5399 95.5737 29.7799C95.267 30.0066 95.0603 30.3399 94.9537 30.7799C94.847 31.2066 94.7937 31.7199 94.7937 32.3199V39.4199C94.7937 40.0199 94.847 40.5466 94.9537 40.9999C95.0603 41.4399 95.267 41.7866 95.5737 42.0399C95.8937 42.2799 96.3537 42.3999 96.9537 42.3999Z" fill="black"/>
<path d="M102.995 43.9999V27.7999H107.015C107.988 27.7999 108.762 27.9799 109.335 28.3399C109.922 28.6866 110.348 29.1932 110.615 29.8599C110.882 30.5266 111.015 31.3332 111.015 32.2799C111.015 33.1332 110.862 33.8732 110.555 34.4999C110.262 35.1266 109.822 35.6132 109.235 35.9599C108.648 36.2932 107.915 36.4599 107.035 36.4599H105.255V43.9999H102.995ZM105.255 34.8399H106.295C106.948 34.8399 107.462 34.7666 107.835 34.6199C108.208 34.4732 108.475 34.2199 108.635 33.8599C108.795 33.4866 108.875 32.9666 108.875 32.2999C108.875 31.5266 108.815 30.9332 108.695 30.5199C108.588 30.1066 108.355 29.8199 107.995 29.6599C107.635 29.4999 107.075 29.4199 106.315 29.4199H105.255V34.8399Z" fill="black"/>
<path d="M112.004 43.9999V27.7999H114.264V42.3799H118.404V43.9999H112.004Z" fill="black"/>
<path d="M119.354 43.9999V27.7999H125.634V29.4799H121.614V34.8399H124.874V36.4399H121.614V42.3799H125.674V43.9999H119.354Z" fill="black"/>
<path d="M126.618 38.7799V37.1599H131.078V38.7799H126.618Z" fill="black"/>
<path d="M136.784 44.1799C135.637 44.1799 134.744 43.9399 134.104 43.4599C133.477 42.9799 133.037 42.3332 132.784 41.5199C132.544 40.7066 132.424 39.7999 132.424 38.7999V33.0799C132.424 31.9866 132.544 31.0332 132.784 30.2199C133.037 29.4066 133.477 28.7799 134.104 28.3399C134.744 27.8866 135.637 27.6599 136.784 27.6599C137.797 27.6599 138.597 27.8466 139.184 28.2199C139.784 28.5932 140.21 29.1266 140.464 29.8199C140.73 30.5132 140.864 31.3466 140.864 32.3199V33.5999H138.724V32.4599C138.724 31.8599 138.69 31.3332 138.624 30.8799C138.57 30.4132 138.41 30.0532 138.144 29.7999C137.877 29.5466 137.43 29.4199 136.804 29.4199C136.164 29.4199 135.697 29.5599 135.404 29.8399C135.11 30.1066 134.917 30.4932 134.824 30.9999C134.744 31.4932 134.704 32.0732 134.704 32.7399V39.1599C134.704 39.9732 134.77 40.6199 134.904 41.0999C135.037 41.5666 135.257 41.8999 135.564 42.0999C135.87 42.2999 136.284 42.3999 136.804 42.3999C137.417 42.3999 137.857 42.2666 138.124 41.9999C138.39 41.7199 138.557 41.3399 138.624 40.8599C138.69 40.3799 138.724 39.8199 138.724 39.1799V37.9799H140.864V39.1799C140.864 40.1666 140.744 41.0399 140.504 41.7999C140.264 42.5466 139.85 43.1332 139.264 43.5599C138.677 43.9732 137.85 44.1799 136.784 44.1799Z" fill="black"/>
<path d="M142.417 43.9999V27.7999H148.697V29.4799H144.677V34.8399H147.937V36.4399H144.677V42.3799H148.737V43.9999H142.417Z" fill="black"/>
<path d="M149.961 43.9999V27.7999H151.501L156.101 38.5599V27.7999H157.981V43.9999H156.541L151.881 32.9399V43.9999H149.961Z" fill="black"/>
<path d="M161.708 43.9999V29.4799H158.968V27.7999H166.628V29.4799H163.968V43.9999H161.708Z" fill="black"/>
<path d="M167.589 43.9999V27.7999H170.849C171.929 27.7999 172.823 27.9466 173.529 28.2399C174.236 28.5199 174.756 28.9799 175.089 29.6199C175.436 30.2466 175.609 31.0732 175.609 32.0999C175.609 32.7266 175.543 33.2999 175.409 33.8199C175.276 34.3266 175.063 34.7599 174.769 35.1199C174.476 35.4666 174.089 35.7199 173.609 35.8799L175.909 43.9999H173.729L171.609 36.3999H169.849V43.9999H167.589ZM169.849 34.7799H170.709C171.349 34.7799 171.869 34.6999 172.269 34.5399C172.669 34.3799 172.963 34.1066 173.149 33.7199C173.336 33.3332 173.429 32.7932 173.429 32.0999C173.429 31.1532 173.256 30.4732 172.909 30.0599C172.563 29.6332 171.876 29.4199 170.849 29.4199H169.849V34.7799Z" fill="black"/>
<path d="M177.481 43.9999V27.7999H179.701V43.9999H177.481Z" fill="black"/>
<path d="M185.781 44.1799C184.635 44.1799 183.741 43.9399 183.101 43.4599C182.475 42.9799 182.035 42.3332 181.781 41.5199C181.541 40.7066 181.421 39.7999 181.421 38.7999V33.0799C181.421 31.9866 181.541 31.0332 181.781 30.2199C182.035 29.4066 182.475 28.7799 183.101 28.3399C183.741 27.8866 184.635 27.6599 185.781 27.6599C186.795 27.6599 187.595 27.8466 188.181 28.2199C188.781 28.5932 189.208 29.1266 189.461 29.8199C189.728 30.5132 189.861 31.3466 189.861 32.3199V33.5999H187.721V32.4599C187.721 31.8599 187.688 31.3332 187.621 30.8799C187.568 30.4132 187.408 30.0532 187.141 29.7999C186.875 29.5466 186.428 29.4199 185.801 29.4199C185.161 29.4199 184.695 29.5599 184.401 29.8399C184.108 30.1066 183.915 30.4932 183.821 30.9999C183.741 31.4932 183.701 32.0732 183.701 32.7399V39.1599C183.701 39.9732 183.768 40.6199 183.901 41.0999C184.035 41.5666 184.255 41.8999 184.561 42.0999C184.868 42.2999 185.281 42.3999 185.801 42.3999C186.415 42.3999 186.855 42.2666 187.121 41.9999C187.388 41.7199 187.555 41.3399 187.621 40.8599C187.688 40.3799 187.721 39.8199 187.721 39.1799V37.9799H189.861V39.1799C189.861 40.1666 189.741 41.0399 189.501 41.7999C189.261 42.5466 188.848 43.1332 188.261 43.5599C187.675 43.9732 186.848 44.1799 185.781 44.1799Z" fill="black"/>
<path d="M16.8749 16H33.1249V43C33.1249 46.866 29.9909 50 26.1249 50H16.8749V16Z" fill="#3DEEB8"/>
<path d="M0 16V0H43C46.866 0 50 4 50 8C50 12 46.866 16 43 16H0Z" fill="#3DEEB8"/>
<path d="M16.8749 16H8.99988L9.24988 16.25H9.87488C13.7409 16.25 16.8749 19.384 16.8749 23.25V23.875V16Z" fill="#3DEEB8"/>
<path d="M0 16H9.875C13.741 16 16.875 19.134 16.875 23V50H7C3.13401 50 0 46.866 0 43V16Z" fill="#0F0F0F"/>
<rect x="1.85156" y="1.22681" width="12.963" height="12.963" rx="6.48148" fill="#0F0F0F"/>
</svg>
