<svg width="111" height="110" viewBox="0 0 111 110" fill="none" xmlns="http://www.w3.org/2000/svg">
<path d="M60.7571 21.9836C58.2031 19.4283 58.2031 15.2854 60.7571 12.7302L70.6667 2.81585C73.2208 0.260601 77.3617 0.260601 79.9157 2.81585L108.984 31.8979C111.538 34.4532 111.538 38.5961 108.984 41.1513L99.0743 51.0656C96.5203 53.6209 92.3793 53.6209 89.8253 51.0656L60.7571 21.9836Z" fill="#F8E16C"/>
<path d="M2.83136 78.0675C0.277332 75.5123 0.277333 71.3694 2.83136 68.8142L12.741 58.8998C15.295 56.3446 19.4359 56.3446 21.9899 58.8998L51.0581 87.9819C53.6121 90.5371 53.6121 94.68 51.0581 97.2353L41.1485 107.15C38.5945 109.705 34.4536 109.705 31.8995 107.15L2.83136 78.0675Z" fill="#F8E16C"/>
<path d="M89.8249 58.8998C92.3789 56.3446 96.5198 56.3446 99.0738 58.8998L108.983 68.8142C111.537 71.3694 111.537 75.5123 108.983 78.0676L79.9153 107.15C77.3612 109.705 73.2203 109.705 70.6663 107.15L60.7567 97.2353C58.2027 94.68 58.2027 90.5372 60.7567 87.9819L89.8249 58.8998Z" fill="#F8E16C"/>
<path d="M31.8831 2.81585C34.4371 0.260602 38.5781 0.260603 41.1321 2.81585L51.0417 12.7302C53.5957 15.2854 53.5957 19.4283 51.0417 21.9836L21.9735 51.0656C19.4195 53.6209 15.2786 53.6209 12.7245 51.0656L2.81494 41.1513C0.260906 38.5961 0.260906 34.4532 2.81494 31.8979L31.8831 2.81585Z" fill="#F8E16C"/>
</svg>
