<svg width="121" height="119" viewBox="0 0 121 119" fill="none" xmlns="http://www.w3.org/2000/svg">
<path d="M66.1987 23.9003C63.4125 21.1128 63.4125 16.5933 66.1987 13.8057L77.0092 2.99007C79.7954 0.202527 84.3128 0.202527 87.099 2.99007L118.81 34.716C121.596 37.5035 121.596 42.023 118.81 44.8106L107.999 55.6262C105.213 58.4138 100.696 58.4138 97.9095 55.6262L66.1987 23.9003Z" fill="#F8E16C"/>
<path d="M3.007 85.0828C0.220779 82.2953 0.22078 77.7758 3.007 74.9882L13.8175 64.1726C16.6037 61.385 21.121 61.385 23.9073 64.1726L55.618 95.8985C58.4042 98.686 58.4042 103.206 55.618 105.993L44.8075 116.809C42.0213 119.596 37.504 119.596 34.7177 116.809L3.007 85.0828Z" fill="#F8E16C"/>
<path d="M97.909 64.1726C100.695 61.3851 105.213 61.3851 107.999 64.1726L118.809 74.9883C121.595 77.7758 121.595 82.2953 118.809 85.0829L87.0985 116.809C84.3123 119.596 79.795 119.596 77.0087 116.809L66.1983 105.993C63.412 103.206 63.412 98.6861 66.1983 95.8985L97.909 64.1726Z" fill="#F8E16C"/>
<path d="M34.6998 2.99008C37.486 0.202528 42.0034 0.202529 44.7896 2.99008L55.6001 13.8057C58.3863 16.5933 58.3863 21.1128 55.6001 23.9003L23.8893 55.6262C21.1031 58.4138 16.5858 58.4138 13.7996 55.6262L2.98908 44.8106C0.20286 42.023 0.20286 37.5035 2.98908 34.716L34.6998 2.99008Z" fill="#F8E16C"/>
</svg>
